<svg width="32" height="32" viewBox="0 0 160 160" fill="none" xmlns="http://www.w3.org/2000/svg"><path fill-rule="evenodd" clip-rule="evenodd" d="M0 0h160v160H0V0z" fill="#016FD0"/><path fill-rule="evenodd" clip-rule="evenodd" d="M31.02 111.462V86.31H57.6l2.848 3.738 2.931-3.738H160v23.38s-2.49 1.689-5.421 1.689h-53.427l-3.2-4v4H87.379v-6.758s-1.427.979-4.531.979H79.29v5.779h-16l-2.842-3.827-2.938 3.827-26.49.083zM0 67.462L5.958 53.51h10.394l3.386 7.828v-7.834H32.62l2.048 5.69 1.952-5.69h57.87v2.842s3.02-2.842 8-2.842l18.752.09 3.379 7.737v-7.827h10.758l2.925 4.442V53.51h11.034v25.16H138.4l-2.848-4.448v4.441h-15.808l-1.6-4h-4.275l-1.6 4h-10.752c-4.263 0-7.021-2.752-7.021-2.752v2.752h-16.18l-3.2-4v4H14.849l-1.6-4h-4.27l-1.6 4H0v-11.2z" fill="#fff"/><path fill-rule="evenodd" clip-rule="evenodd" d="M8.09 56.538L0 75.379h5.242l1.51-3.731h8.717l1.51 3.731H22.4l-8.09-18.841H8.09zm3.02 4.352l2.67 6.572H8.447l2.662-6.572zm11.828 14.49V56.537l7.462.083 4.358 12.083 4.263-12.166H46.4v18.841h-4.71V61.517l-4.98 13.862h-4.09l-5.068-13.862v13.862h-4.614zm26.662 0V56.537h15.38V60.8H54.4V64h10.31v3.91H54.4v3.38h10.58v4.09H49.6zm18.042-18.842v18.841h4.71V68.71h1.958l5.6 6.67h5.78l-6.228-6.932a5.676 5.676 0 005.159-5.786c0-4-3.11-6.124-6.573-6.124H67.642zm4.71 4.262h5.338c1.33 0 2.22.98 2.22 1.952 0 1.248-1.248 1.958-2.13 1.958h-5.428V60.8zm19.11 14.58h-4.8V56.537h4.8v18.841zm11.38 0h-1.063c-4.979 0-8.09-3.918-8.09-9.332 0-5.517 3.021-9.51 9.332-9.51h5.158v4.441h-5.427c-2.573 0-4.352 2.042-4.352 5.069 0 3.642 2.042 5.152 5.062 5.152h1.248l-1.862 4.18h-.006zm10.22-18.842l-8.083 18.841h5.242l1.517-3.731h8.704l1.51 3.731h5.427l-8.089-18.841h-6.228zm3.028 4.352l2.662 6.572h-5.331l2.669-6.572zm11.731 14.49V56.537h5.958l7.642 11.814V56.538h4.717v18.841h-5.786L132.538 63.2v12.18h-4.717zm-93.504 32.882V89.421H49.6v4.269H39.02v3.2h10.324v4H39.021v3.289H49.6v4.083H34.317zm75.104 0V89.421H124.8v4.269h-10.579v3.2h10.317v4h-10.317v3.289H124.8v4.083h-15.379zm-59.2 0l7.469-9.241-7.642-9.6H56l4.538 5.958 4.524-5.952h5.696L63.2 98.848l7.558 9.414H64.8l-4.448-5.772-4.262 5.772h-5.87zM71.29 89.51v18.842h4.8V102.4h4.972c4.186 0 7.386-2.221 7.386-6.58 0-3.558-2.496-6.31-6.758-6.31h-10.4zm4.8 4.18h5.241c1.331 0 2.317.8 2.317 2.13 0 1.242-.986 2.132-2.317 2.132H76.18V93.69h-.09zm14.4-4.27v18.842h4.71V101.6h1.952l5.6 6.662h5.786l-6.228-6.924a5.676 5.676 0 005.152-5.786c0-4-3.11-6.131-6.572-6.131h-10.4zm4.71 4.27h5.338c1.324 0 2.214.972 2.214 1.958 0 1.242-1.242 1.952-2.131 1.952H95.2v-3.91zm31.821 14.572v-4.083h9.427c1.414 0 1.952-.717 1.952-1.6 0-.8-.621-1.6-1.952-1.6h-4.269c-3.731 0-5.779-2.227-5.779-5.6 0-3.027 1.862-5.958 7.379-5.958h9.152l-1.952 4.269h-7.923c-1.51 0-1.952.8-1.952 1.51 0 .8.538 1.6 1.69 1.6h4.448c4.083 0 5.862 2.31 5.862 5.421 0 3.289-1.958 5.958-6.131 5.958l-9.952.083zm17.241 0v-4.083h8.986c1.414 0 1.952-.717 1.952-1.6 0-.8-.621-1.6-1.952-1.6h-3.827c-3.731 0-5.773-2.227-5.773-5.6 0-3.027 1.862-5.958 7.373-5.958H160l-1.952 4.269h-7.738c-1.51 0-1.958.8-1.958 1.51 0 .8.538 1.6 1.696 1.6h4.083c4.096 0 5.869 2.31 5.869 5.421 0 3.289-1.952 5.958-6.138 5.958l-9.6.083z" fill="#016FD0"/></svg>