<svg xmlns="http://www.w3.org/2000/svg" xmlns:xlink="http://www.w3.org/1999/xlink" id="svg170" height="32" width="36" viewBox="0 0 54 48"><defs id="defs174"><defs id="defs7"><path id="A" d="M188.43 339.915a8.23 8.23 0 0 0-8.224 8.24v131.847c0 4.555 3.686 8.25 8.224 8.25h219.762c4.55 0 8.246-3.694 8.246-8.25V348.155a8.24 8.24 0 0 0-8.246-8.24z"/></defs><clipPath id="B"><use xlink:href="#A" id="use9"/></clipPath><radialGradient gradientTransform="translate(-30.035 -53.898) scale(.18841)" id="L" cx="298.411" cy="413.992" r="117.679" gradientUnits="userSpaceOnUse"><stop offset="0" stop-color="#dcddde" id="stop127"/><stop offset=".352" stop-color="#d9dbdc" stop-opacity=".648" id="stop129"/><stop offset=".59" stop-color="#d2d3d5" stop-opacity=".4" id="stop131"/><stop offset=".795" stop-color="#c5c7c9" stop-opacity=".205" id="stop133"/><stop offset=".981" stop-color="#b4b6b8" stop-opacity=".02" id="stop135"/><stop offset="1" stop-color="#b1b3b6" stop-opacity="0" id="stop137"/></radialGradient></defs><style id="style2">.C{fill:#f78e1e}</style><g id="g18014"><path id="path4" d="M5.468 10.146a1.55 1.55 0 0 0-1.55 1.553V36.54c0 .858.695 1.555 1.55 1.555h41.405c.857 0 1.554-.696 1.554-1.555V11.7a1.553 1.553 0 0 0-1.554-1.553z" fill="#d1d3d4" stroke-width=".188"/><g id="g37" clip-path="url(#B)" transform="translate(-30.035 -53.898) scale(.18841)" opacity=".68"><defs id="defs13"><path d="M160.8 320.533h275v187.105h-275z" id="C"/></defs><clipPath id="D"><use height="100%" width="100%" id="use15" xlink:href="#C"/></clipPath><g id="g35" clip-path="url(#D)"><defs id="defs19"><path d="M169.058 320.533a8.22 8.22 0 0 0-8.235 8.238V499.38c0 4.52 3.63 8.195 8.132 8.26H427.68c4.452-.063 8.052-3.65 8.12-8.104v-170.91c-.08-4.483-3.736-8.1-8.23-8.1z" id="E"/></defs><clipPath id="F"><use height="100%" width="100%" id="use21" xlink:href="#E"/></clipPath><radialGradient gradientUnits="userSpaceOnUse" gradientTransform="matrix(552.0587 0 0 -445.1442 6892.048 288849.41)" r=".754" cy="648.027" cx="-11.945" id="G"><stop id="stop24" stop-color="#fff" offset="0"/><stop id="stop26" stop-color="#fff" offset=".221"/><stop id="stop28" stop-color="#131819" offset=".667"/><stop id="stop30" stop-color="#131819" offset="1"/></radialGradient><path id="path33" d="M160.822 320.533H435.8v187.105H160.822z" clip-path="url(#F)" fill="url(#G)"/></g></g><path id="path140" d="M5.485 10.13a1.549 1.549 0 0 0-1.548 1.552v24.842a1.55 1.55 0 0 0 1.548 1.553H46.89a1.553 1.553 0 0 0 1.552-1.553V11.682a1.55 1.55 0 0 0-1.552-1.552z" fill="url(#L)" stroke-width=".188"/><path id="path142" class="C" d="M7.225 41.697H3.967C2.37 41.697 0 40.698 0 37.947V10.32c0-1.508 1.057-3.753 3.967-3.753h3.127v2.268H3.967c-1.5 0-1.69 1.046-1.7 1.497v27.613c0 1.412 1.412 1.486 1.7 1.486h3.258zm41.266 0h-3.256v-2.264h3.256c.392-.01 1.698-.137 1.698-1.486V10.32c-.01-.439-.2-1.485-1.698-1.485h-3.127V6.568h3.127c2.907 0 3.964 2.245 3.964 3.753v27.626c0 2.75-2.37 3.75-3.965 3.75" fill="#f78e1e" stroke-width=".188"/><path id="path144" d="M51.155 11.207a2.12 2.12 0 0 0 2.123-2.123 2.122 2.122 0 0 0-2.123-2.124c-1.171 0-2.12.953-2.12 2.124a2.122 2.122 0 0 0 2.12 2.123" fill="#ffc233" stroke-width=".188"/><path id="path146" class="C" d="M51.188 7.437a1.68 1.68 0 0 0-1.678 1.68 1.68 1.68 0 0 0 1.678 1.676 1.678 1.678 0 1 0 0-3.356m0 4.484a2.814 2.814 0 0 1-2.812-2.806 2.816 2.816 0 0 1 2.812-2.813A2.814 2.814 0 0 1 54 9.115a2.813 2.813 0 0 1-2.812 2.806" fill="#f78e1e" stroke-width=".188"/><g id="g152" transform="translate(-30.035 -53.898) scale(.18841)" fill="#0079c1"><path id="path148" d="M298.17 455.627c-17.104 0-32.637-10.74-38.688-26.714l-.206-.577h5.354l.086.258a36.34 36.34 0 0 0 33.432 22.033c14.492 0 27.597-8.65 33.392-22.033l.103-.258h5.44l-.217.577c-6.093 15.974-21.66 26.714-38.696 26.714m-69.382-32.203a9.94 9.94 0 0 1-3.601-.677 9.714 9.714 0 0 1-3.165-2.13c-.92-.926-1.635-1.98-2.086-3.146-.451-1.166-.7-2.377-.7-3.568a9.96 9.96 0 0 1 .69-3.62c.45-1.156 1.166-2.215 2.086-3.146a9.17 9.17 0 0 1 3.165-2.09c2.35-.954 4.87-.954 7.2 0a8.908 8.908 0 0 1 3.172 2.1l1.56 1.555-3.108 3.146-1.577-1.555c-.537-.506-1.098-.88-1.703-1.13a5.13 5.13 0 0 0-3.846 0 4.75 4.75 0 0 0-1.687 1.129c-.52.485-.9 1.02-1.126 1.646a4.84 4.84 0 0 0-.405 1.922c0 .648.132 1.298.405 1.927.235.622.618 1.188 1.126 1.694 1.013 1.014 2.172 1.5 3.6 1.5.675 0 1.326-.144 1.954-.38.618-.26 1.2-.632 1.657-1.127l1.6-1.56 3.108 3.15-1.56 1.554a9.68 9.68 0 0 1-3.172 2.129 9.71 9.71 0 0 1-3.588.678"/><path id="path150" d="M247.812 423.424a9.497 9.497 0 0 1-3.65-.72 9.11 9.11 0 0 1-3.08-2.086 9.36 9.36 0 0 1-2.12-3.146c-.428-1.186-.662-2.403-.662-3.6a10.4 10.4 0 0 1 .662-3.58 9.687 9.687 0 0 1 2.12-3.146c.926-.94 2-1.64 3.155-2.1 2.35-.954 4.863-.954 7.172 0a8.88 8.88 0 0 1 3.189 2.091l1.554 1.555-10 9.98a4.82 4.82 0 0 0 1.737.318c.23 0 .485-.01.743-.058 1.074-.16 2.012-.646 2.834-1.46l1.537-1.558 3.15 3.15-1.554 1.554a9.15 9.15 0 0 1-3.104 2.086 9.428 9.428 0 0 1-3.68.72m-.062-14.664a4.15 4.15 0 0 0-.743.066c-1.068.135-1.982.62-2.77 1.423a4.88 4.88 0 0 0-1.521 3.614c0 .572.1 1.132.292 1.663l5.297-5.306 1.207-1.154a5.268 5.268 0 0 0-1.76-.306m28.705 14.664H272v-9.56c0-.703-.126-1.354-.4-1.957-.257-.63-.6-1.174-1.08-1.623-.463-.47-1-.837-1.617-1.08a5.03 5.03 0 0 0-4-.018 4.96 4.96 0 0 0-1.635 1.098 5.1 5.1 0 0 0-1.09 1.623c-.257.586-.372 1.25-.372 1.957v9.56h-4.445v-9.56c0-1.337.24-2.586.7-3.7.525-1.175 1.205-2.18 2.057-3.026.852-.88 1.886-1.568 3.063-2.065 2.343-1.003 5.166-.98 7.406.026a9.276 9.276 0 0 1 3.04 2.04c.886.83 1.566 1.852 2.04 3.026.515 1.114.783 2.363.783 3.7zm10.888 0a9.91 9.91 0 0 1-3.606-.677 9.536 9.536 0 0 1-3.154-2.13c-.932-.926-1.64-1.98-2.08-3.146a9.77 9.77 0 0 1-.675-3.568 9.8 9.8 0 0 1 .675-3.62c.44-1.16 1.148-2.215 2.08-3.146.926-.94 2-1.64 3.154-2.1 2.35-.954 4.88-.954 7.178 0a8.9 8.9 0 0 1 3.184 2.1l1.55 1.555-3.075 3.146-1.6-1.555a5.4 5.4 0 0 0-1.71-1.13c-1.25-.503-2.57-.494-3.84 0a4.86 4.86 0 0 0-1.687 1.13 4.774 4.774 0 0 0-1.137 1.646 5.533 5.533 0 0 0-.37 1.922c0 .648.137 1.298.37 1.927a5.21 5.21 0 0 0 1.137 1.694 4.85 4.85 0 0 0 3.606 1.509c.68 0 1.35-.144 1.96-.38.6-.26 1.2-.632 1.646-1.127l1.622-1.56 3.075 3.15-1.55 1.554a9.225 9.225 0 0 1-3.184 2.13 9.6 9.6 0 0 1-3.57.678m19.06-.002c-1.298 0-2.555-.236-3.7-.72a9.697 9.697 0 0 1-3.068-2.086 9.845 9.845 0 0 1-2.04-3.063 9.8 9.8 0 0 1-.732-3.7c0-1.337.264-2.586.732-3.7a9.354 9.354 0 0 1 2.04-3.026 9.638 9.638 0 0 1 3.068-2.065c2.326-1.003 5.16-.98 7.407.026a9.073 9.073 0 0 1 3.062 2.04 8.56 8.56 0 0 1 2.04 3.026c.503 1.114.754 2.363.754 3.7 0 1.286-.25 2.552-.754 3.7a9.067 9.067 0 0 1-2.04 3.063 9.764 9.764 0 0 1-3.062 2.086 9.71 9.71 0 0 1-3.698.72m0-14.657c-.703 0-1.372.15-2.006.437a4.82 4.82 0 0 0-1.663 1.08 5.03 5.03 0 0 0-1.086 1.623 5.17 5.17 0 0 0-.39 1.957 5.45 5.45 0 0 0 .39 1.99 5.664 5.664 0 0 0 1.104 1.668 5.89 5.89 0 0 0 1.646 1.087 5.53 5.53 0 0 0 3.983-.006 5.73 5.73 0 0 0 1.635-1.083 4.7 4.7 0 0 0 1.074-1.666c.297-.62.423-1.304.423-2 0-.703-.126-1.354-.423-1.957a4.293 4.293 0 0 0-1.074-1.614 4.737 4.737 0 0 0-1.635-1.1 4.727 4.727 0 0 0-1.978-.437m24.135 14.657h-11.424v-4.442h11.424a1.47 1.47 0 0 0 1.04-.406c.28-.28.417-.62.417-1.055a1.36 1.36 0 0 0-.417-1.011c-.27-.27-.635-.406-1.04-.406h-7.344c-.812 0-1.577-.15-2.297-.432a5.984 5.984 0 0 1-1.852-1.28 7.202 7.202 0 0 1-1.27-1.87 6.38 6.38 0 0 1-.45-2.326c0-.815.166-1.572.44-2.283.332-.74.75-1.352 1.28-1.883a5.597 5.597 0 0 1 1.852-1.232 5.612 5.612 0 0 1 2.297-.468h11.446v4.438h-11.446c-.412 0-.726.15-.994.414-.292.28-.418.597-.418 1.015 0 .418.144.754.43 1.06.257.274.57.386.982.386h7.344c.817 0 1.565.177 2.28.503.726.28 1.36.686 1.868 1.214.555.535.994 1.155 1.263 1.903.332.677.486 1.446.486 2.26 0 .82-.144 1.595-.486 2.317a5.38 5.38 0 0 1-1.263 1.875c-.508.534-1.143.95-1.892 1.27-.7.3-1.438.438-2.255.438m16.8.001a9.74 9.74 0 0 1-3.697-.72c-1.166-.515-2.217-1.2-3.062-2.086-.863-.862-1.537-1.895-2.052-3.063-.5-1.154-.726-2.405-.726-3.703v-9.522h4.457v9.522c0 .7.114 1.4.4 2a5.39 5.39 0 0 0 1.074 1.668c.445.435 1.018.804 1.623 1.087a5.57 5.57 0 0 0 3.988-.006 5.626 5.626 0 0 0 1.6-1.083 4.7 4.7 0 0 0 1.092-1.666 5.04 5.04 0 0 0 .435-2v-9.522h4.428v9.522c0 1.298-.24 2.563-.748 3.703-.497 1.17-1.16 2.195-2.04 3.063a9.978 9.978 0 0 1-3.063 2.086 9.65 9.65 0 0 1-3.7.72m20.503 0a9.79 9.79 0 0 1-3.703-.72 9.68 9.68 0 0 1-3.052-2.086 9.36 9.36 0 0 1-2.074-3.063 9.22 9.22 0 0 1-.75-3.703c0-1.325.263-2.574.737-3.688a8.992 8.992 0 0 1 2.086-3.03c.857-.875 1.908-1.563 3.052-2.06a9.585 9.585 0 0 1 3.703-.742h5.098v-7.324h4.44v16.847c0 1.298-.27 2.563-.76 3.703a9.114 9.114 0 0 1-2.058 3.063c-.834.877-1.857 1.57-3.012 2.086-1.177.468-2.428.72-3.708.72m0-14.657a5 5 0 0 0-1.982.419c-.63.26-1.212.627-1.68 1.098-.445.45-.806.994-1.08 1.623a5.01 5.01 0 0 0-.377 1.945 5.37 5.37 0 0 0 .377 2.001 5.68 5.68 0 0 0 1.103 1.668c.446.435 1.028.804 1.658 1.087 1.205.5 2.754.494 3.942-.006a5.83 5.83 0 0 0 1.623-1.083 5.008 5.008 0 0 0 1.068-1.666c.304-.62.446-1.304.446-2v-5.085zm-35.854-8.904l-.103-.257c-1.006-2.314-2.32-4.62-3.9-6.858-.663.223-1.4.323-2.062.323-3.698 0-6.738-3.007-6.738-6.715 0-.708.126-1.412.332-2.086-6.184-4.406-13.46-6.752-21.076-6.752-14.596 0-27.73 8.664-33.432 22.08l-.104.25h-5.3l.2-.56c6.103-16.004 21.624-26.757 38.654-26.757 8.755 0 17.1 2.734 24.208 7.88a6.616 6.616 0 0 1 3.326-.868c3.715 0 6.76 3.037 6.76 6.77 0 1.165-.27 2.263-.817 3.237 2.137 2.943 3.95 6.287 5.212 9.738l.234.56z"/></g><path id="path154" class="C" d="M31.384 18.212a.675.675 0 0 0-.671.669c0 .367.305.665.671.665a.667.667 0 1 0 0-1.334" fill="#f78e1e" stroke-width=".188"/><path id="path156" d="M11.618 16.5H11.3v-.477c-.179.348-.53.542-.943.542-.754 0-1.2-.584-1.2-1.219 0-.678.498-1.22 1.2-1.22.492 0 .83.29.943.55v-.484h.317zm-2.145-1.148c.003.414.294.917.928.917a.865.865 0 0 0 .834-.561.865.865 0 0 0 .074-.364.81.81 0 0 0-.074-.368.883.883 0 0 0-.844-.556.906.906 0 0 0-.918.928v.003zm2.67-1.163h.3v.377c.17-.344.468-.435.74-.444v.316h-.033c-.443 0-.692.279-.692.8v1.257h-.315zm2.422 1.249c.017.575.514.855.905.85a.852.852 0 0 0 .793-.475h.327a1.215 1.215 0 0 1-1.12.752c-.805 0-1.224-.64-1.224-1.215 0-.679.525-1.225 1.219-1.225.326 0 .621.118.84.326.269.261.396.616.363.987h-2.105zm1.79-.256c-.022-.402-.413-.798-.885-.785-.501 0-.866.366-.898.785zm1.916-.741h-.51v2.053h-.307v-2.053h-.457v-.254h.457v-.867h.307v.867h.51zm2.71 2.06h-.32v-.478c-.181.348-.535.542-.945.542-.751 0-1.2-.584-1.2-1.219 0-.678.498-1.22 1.2-1.22.495 0 .83.29.945.55v-.484h.32zm-2.153-1.15c.01.415.295.918.93.918a.865.865 0 0 0 .833-.561.938.938 0 0 0 .075-.364.744.744 0 0 0-.071-.368.887.887 0 0 0-.846-.556.91.91 0 0 0-.921.928v.003zM9.158 13.3h-1.76v.31h.725v2.887h.308V13.61h.728zm4.657 3.233c0 .41-.032.86-.641.93l-.1.001v-.263c.023 0 .039 0 .06-.005.335-.055.366-.312.366-.66v-2.285h.315zm.108-3.04c0 .146-.12.261-.263.261a.262.262 0 0 1-.265-.26.264.264 0 0 1 .265-.264c.142 0 .263.116.263.264" fill="#0079c1" stroke-width=".188"/><path id="path158" d="M37.272 36.49v-.592c0-.224-.142-.374-.371-.376a.366.366 0 0 0-.332.168.346.346 0 0 0-.312-.168c-.101 0-.2.03-.277.14v-.116h-.205v.944h.207v-.523c0-.164.091-.251.231-.251.137 0 .208.089.208.249v.525h.207v-.523c0-.164.095-.251.231-.251.14 0 .208.089.208.249v.525zm3.07-.944h-.336v-.286H39.8v.286h-.192v.188h.192v.43c0 .22.085.35.328.35a.478.478 0 0 0 .257-.074l-.06-.175a.38.38 0 0 1-.181.053c-.103 0-.137-.063-.137-.158v-.427h.336v-.187zm1.752-.024a.277.277 0 0 0-.248.139v-.115h-.204v.944h.205v-.527c0-.157.068-.245.202-.245.042 0 .085.006.129.024l.063-.194a.437.437 0 0 0-.147-.026zm-2.649.1a.706.706 0 0 0-.385-.1c-.24 0-.393.115-.393.303 0 .154.114.248.326.279l.097.014c.112.015.165.045.165.098 0 .074-.075.115-.215.115a.502.502 0 0 1-.314-.1l-.097.161a.682.682 0 0 0 .41.122c.272 0 .43-.128.43-.308 0-.166-.125-.253-.33-.282l-.097-.014c-.089-.012-.16-.03-.16-.093 0-.069.067-.11.18-.11.12 0 .237.045.294.08zm5.504-.1a.277.277 0 0 0-.249.139v-.115h-.203v.944h.205v-.527c0-.157.067-.245.201-.245.042 0 .085.006.129.024l.063-.194a.436.436 0 0 0-.146-.026zm-2.647.496c0 .286.2.496.503.496a.494.494 0 0 0 .34-.113l-.098-.166a.416.416 0 0 1-.247.085c-.164-.002-.283-.12-.283-.302s.12-.3.283-.302c.089 0 .17.03.247.084l.098-.165a.495.495 0 0 0-.34-.113c-.304 0-.503.21-.503.496zm1.924 0v-.472h-.206v.114a.359.359 0 0 0-.298-.138c-.264 0-.472.207-.472.496 0 .288.208.496.472.496a.358.358 0 0 0 .298-.139v.115h.206zm-.765 0c0-.166.109-.302.287-.302.17 0 .282.13.282.302s-.114.302-.282.302c-.178 0-.287-.136-.287-.302zm-2.48-.496c-.276 0-.47.202-.47.496 0 .3.202.496.485.496a.575.575 0 0 0 .387-.133l-.1-.152a.45.45 0 0 1-.275.099c-.133 0-.253-.061-.283-.231h.702l.003-.08c-.002-.293-.184-.495-.448-.495zm-.003.184c.132 0 .217.083.24.23h-.49c.021-.137.104-.23.25-.23zm5.154.312v-.852h-.205v.494a.359.359 0 0 0-.299-.138c-.264 0-.472.207-.472.496 0 .288.208.496.472.496a.358.358 0 0 0 .299-.139v.115h.205zm-.764 0c0-.166.108-.302.286-.302.17 0 .283.13.283.302s-.115.302-.283.302c-.178 0-.286-.136-.286-.302zm-6.939 0v-.472h-.207v.115a.359.359 0 0 0-.298-.139c-.265 0-.472.208-.472.496 0 .288.207.496.472.496a.358.358 0 0 0 .298-.138v.114h.207zm-.764 0c0-.166.109-.302.286-.302.17 0 .283.13.283.302s-.114.302-.283.302c-.178 0-.286-.136-.286-.302zm8.81.335a.09.09 0 0 1 .037.008.102.102 0 0 1 .03.02.1.1 0 0 1 .02.03.091.091 0 0 1 0 .073.098.098 0 0 1-.02.03.099.099 0 0 1-.105.02.096.096 0 0 1-.03-.02.107.107 0 0 1-.021-.03.084.084 0 0 1-.008-.037.09.09 0 0 1 .008-.036.103.103 0 0 1 .02-.03.096.096 0 0 1 .03-.02.097.097 0 0 1 .038-.008zm0 .168a.073.073 0 0 0 .028-.006.075.075 0 0 0 .038-.04.068.068 0 0 0 .006-.027.075.075 0 0 0-.005-.029.072.072 0 0 0-.016-.023.072.072 0 0 0-.023-.016.068.068 0 0 0-.028-.005.072.072 0 0 0-.029.005.056.056 0 0 0-.023.016c-.005.007-.012.014-.016.023a.072.072 0 0 0-.006.028.075.075 0 0 0 .006.029.07.07 0 0 0 .015.023.073.073 0 0 0 .024.016.075.075 0 0 0 .028.006zm.005-.118a.04.04 0 0 1 .026.008.024.024 0 0 1 .01.02.023.023 0 0 1-.008.018.036.036 0 0 1-.02.009l.027.033h-.022l-.026-.033h-.009v.033h-.018v-.088zm-.021.017v.023h.02c.006 0 .01-.001.013-.003a.013.013 0 0 0 .004-.009.013.013 0 0 0-.004-.009.02.02 0 0 0-.012-.003h-.021z" stroke-width=".188"/><path id="path160" d="M39.377 28.35h3.112v5.592h-3.112z" fill="#f26522" stroke-width=".188"/><path id="path162" d="M39.574 31.146a3.55 3.55 0 0 1 1.359-2.796 3.556 3.556 0 0 0-5.754 2.796 3.557 3.557 0 0 0 3.556 3.556c.83 0 1.593-.284 2.198-.76a3.545 3.545 0 0 1-1.359-2.796z" fill="#e51b24" stroke-width=".188"/><path id="path164" d="M46.347 33.35v-.115h.047v-.023h-.118v.023h.046v.114zm.228 0v-.139h-.037l-.042.095-.041-.095h-.036v.138h.026v-.104l.038.09h.027l.039-.09v.104z" stroke-width=".188"/><path id="path166" d="M46.687 31.146a3.557 3.557 0 0 1-3.556 3.556 3.542 3.542 0 0 1-2.198-.76 3.55 3.55 0 0 0 1.358-2.796 3.555 3.555 0 0 0-1.356-2.796 3.556 3.556 0 0 1 5.754 2.796z" fill="#f99f1c" stroke-width=".188"/></g></svg>