<svg width="31" height="32" viewBox="0 0 52 53" fill="none" xmlns="http://www.w3.org/2000/svg"><path d="M21.753 23.957c0-3.553 1.668-6.706 4.233-8.744a11.036 11.036 0 00-6.863-2.38A11.114 11.114 0 008 23.957a11.116 11.116 0 0011.123 11.126c2.598 0 4.98-.896 6.863-2.382a11.1 11.1 0 01-4.233-8.744z" fill="#E31021"/><path d="M44 23.957a11.117 11.117 0 01-11.125 11.126c-2.595 0-4.98-.896-6.862-2.382a11.05 11.05 0 004.234-8.744c0-3.553-1.67-6.706-4.234-8.744a11.04 11.04 0 016.862-2.38C39.025 12.833 44 17.84 44 23.957z" fill="#F49D1E"/><path d="M26.013 15.213h-.027c-2.566 2.039-4.233 5.191-4.233 8.744a11.1 11.1 0 004.233 8.744h.027a11.05 11.05 0 004.234-8.744c0-3.553-1.67-6.706-4.234-8.744z" fill="#EA611C"/><path fill-rule="evenodd" clip-rule="evenodd" d="M42.27 39.221v-2.655h-.653v1.547c-.215-.28-.518-.433-.926-.433-.833 0-1.48.65-1.48 1.542 0 .9.646 1.546 1.48 1.546.435 0 .743-.154.926-.428v.368h.654v-1.487zM23.11 37.74h1.048v.59h-1.047v1.33c0 .306.12.49.431.49.153 0 .37-.028.561-.151l.182.555a1.729 1.729 0 01-.806.214c-.74 0-1.014-.4-1.014-1.08V38.33h-.591v-.59h.591v-.892h.646v.892zm-8.557 1.114v1.854h-.71V39.07c0-.495-.218-.776-.653-.776-.403 0-.71.248-.71.776v1.637h-.652V39.07c0-.495-.215-.776-.646-.776-.434 0-.713.248-.713.776v1.637h-.647v-2.968h.648v.373c.25-.34.56-.433.865-.433.464 0 .775.185.99.525.278-.401.677-.525 1.054-.525.74 0 1.174.464 1.174 1.174zm15.11-1.174a.865.865 0 00-.775.433v-.373h-.647v2.968h.647V39.04c0-.497.216-.773.616-.773.127 0 .279.027.407.061l.183-.622c-.126-.027-.31-.027-.431-.027zm-9.517 0c.464 0 .895.094 1.201.308l-.271.524c-.19-.092-.56-.245-.928-.245-.343 0-.56.122-.56.34 0 .184.217.246.494.275l.311.032c.616.092 1.016.372 1.016.895 0 .557-.495.96-1.358.96-.465 0-.927-.124-1.266-.372l.31-.493c.214.154.557.312.987.312.433 0 .68-.158.68-.374 0-.156-.183-.25-.526-.307l-.307-.031c-.653-.094-1.02-.374-1.02-.87 0-.586.494-.955 1.237-.955zm18.443 0a.857.857 0 00-.767.433v-.373h-.652v2.968h.652V39.04c0-.497.215-.773.615-.773.124 0 .28.027.398.061l.19-.622c-.123-.027-.308-.027-.436-.027zm-6.705 3.088c-.956 0-1.575-.646-1.575-1.546 0-.893.619-1.542 1.575-1.544.434 0 .744.095 1.057.342l-.313.523a1.251 1.251 0 00-.775-.276c-.52.025-.895.4-.895.955 0 .587.374.96.895.96.282 0 .529-.091.775-.278l.313.525c-.313.248-.623.34-1.057.34zm4.419-1.546V37.74h-.647v.373c-.215-.28-.527-.433-.928-.433-.83 0-1.485.65-1.485 1.542 0 .9.654 1.546 1.485 1.546.433 0 .746-.154.928-.428v.368h.647v-1.487zm-1.48-.954c-.557 0-.9.433-.9.954 0 .53.341.927.9.96.521 0 .897-.43.897-.96 0-.555-.375-.954-.896-.954zm-8.652-.588c-.867 0-1.485.615-1.485 1.542 0 .928.618 1.546 1.517 1.546.43 0 .862-.122 1.2-.4l-.306-.463a1.477 1.477 0 01-.866.311c-.405 0-.804-.19-.898-.712h2.195v-.248c.034-.961-.524-1.576-1.357-1.576zm.742 1.269c-.063-.464-.343-.712-.742-.712-.462 0-.744.306-.805.712h1.547zm13.871-.681c-.557 0-.893.433-.893.954 0 .53.335.927.893.96.53 0 .898-.43.898-.96 0-.555-.368-.954-.898-.954zm-22.589.954V37.74h-.644v.373c-.216-.28-.528-.433-.928-.433-.84 0-1.485.65-1.485 1.542 0 .9.646 1.546 1.485 1.546.43 0 .742-.154.928-.428v.368h.644v-1.487zm-1.512-.954c-.556 0-.9.433-.9.954 0 .53.344.927.9.96.522 0 .899-.43.899-.96 0-.555-.376-.954-.9-.954z" fill="#000"/></svg>