<svg width="63" height="32" viewBox="0 0 318 160" fill="none" xmlns="http://www.w3.org/2000/svg"><path d="M0 106.11V87.62c15.312 0 27.735-12.423 27.735-27.735v-25.64h18.417v25.64c0 25.496-20.729 46.225-46.152 46.225z" fill="#FF9E18"/><path d="M0 106.11V87.62c15.312 0 27.735-12.423 27.735-27.735v-25.64h18.417v25.64c0 25.496-20.729 46.225-46.152 46.225z" fill="url(#paint0_linear)"/><path d="M97.722 28.756a2.59 2.59 0 01.65 1.733c0 .795-.29 1.445-.867 1.95a2.588 2.588 0 01-1.733.65 2.623 2.623 0 01-1.878-.794 2.622 2.622 0 01-.795-1.878c0-.722.289-1.372.867-1.878a2.588 2.588 0 011.733-.65c.867 0 1.517.29 2.023.867zm-3.467.361c-.361.361-.506.867-.506 1.372 0 .506.29 1.084.65 1.517.361.361.867.506 1.373.506.65 0 1.155-.217 1.516-.65.361-.361.506-.867.506-1.373 0-.578-.217-1.083-.65-1.517-.361-.36-.867-.505-1.373-.505-.65 0-1.083.217-1.516.65zm2.383.867c-.289-.361-.505-.434-.794-.434-.29 0-.506.073-.65.29-.145.144-.29.433-.29.65 0 .288.073.505.29.65a.915.915 0 00.65.288c.144 0 .289 0 .36-.072.073-.072.218-.145.434-.361l.433.433L97 31.5c-.36.362-.722.506-1.155.506-.506 0-.867-.144-1.156-.506-.289-.288-.361-.65-.361-1.01 0-.434.144-.867.505-1.156a1.47 1.47 0 011.084-.434c.433 0 .794.217 1.228.578l-.506.506z" fill="#FF5100"/><path d="M81.038 123.299a9.158 9.158 0 01-8.09-4.839l-44.13-79.81c-2.455-4.477-.794-10.039 3.684-12.494 4.478-2.456 10.04-.795 12.495 3.683l44.13 79.81c2.456 4.478.794 10.039-3.684 12.495-1.372.794-2.889 1.155-4.405 1.155z" fill="#96262C"/><path d="M81.037 123.299a9.217 9.217 0 01-9.245-9.245v-79.81c0-5.055 4.117-9.244 9.245-9.244a9.217 9.217 0 019.245 9.245v79.809a9.217 9.217 0 01-9.245 9.245zm27.663-3.178V77.075h6.573l22.39 29.901V77.075h7.656v43.046h-6.573l-22.39-29.901v29.901H108.7zm71.575 0h-7.367v-1.805c-2.455 1.878-4.983 2.744-7.656 2.744-4.478 0-8.161-1.661-11.122-4.983-2.6-2.889-3.901-6.284-3.901-10.256 0-4.623 1.662-8.379 4.984-11.412 2.889-2.528 6.211-3.828 10.039-3.828 2.673 0 5.273.939 7.656 2.745V91.52h7.367v28.601zm-20.945-19.934c-1.156 1.445-1.733 3.322-1.733 5.634 0 2.672.722 4.839 2.311 6.356 1.444 1.444 3.25 2.239 5.417 2.239 2.528 0 4.478-1.012 5.994-2.962 1.084-1.516 1.662-3.394 1.662-5.706 0-2.6-.723-4.694-2.239-6.283-1.445-1.517-3.251-2.24-5.49-2.24-2.455.073-4.405 1.012-5.922 2.962zm35.101-6.789c1.662-1.373 3.467-2.022 5.634-2.022.722 0 1.661.072 2.745.216v6.573c-1.156-.073-2.023-.145-2.673-.145-2.166 0-3.611.578-4.478 1.806-.794 1.228-1.228 3.395-1.228 6.572v13.723h-7.367V91.52h7.367v1.878zm40.736 26.723H227.8v-1.805c-2.456 1.878-4.984 2.744-7.728 2.744-4.478 0-8.162-1.661-11.123-4.983-2.6-2.889-3.9-6.284-3.9-10.256 0-4.623 1.661-8.379 4.983-11.412 2.889-2.528 6.212-3.828 10.04-3.828 2.672 0 5.272.939 7.728 2.745V91.52h7.367v28.601zm-20.946-19.934c-1.155 1.445-1.733 3.322-1.733 5.634 0 2.672.722 4.839 2.311 6.356 1.517 1.444 3.25 2.239 5.417 2.239 2.528 0 4.478-1.012 5.995-2.962 1.083-1.516 1.661-3.394 1.661-5.706 0-2.6-.722-4.694-2.239-6.283-1.444-1.517-3.25-2.24-5.489-2.24-2.456.073-4.406 1.012-5.923 2.962zm35.102-7.15c2.022-1.662 4.261-2.456 6.645-2.456 3.394 0 6.717 1.445 8.884 3.828 2.239 2.383 3.178 5.49 3.178 10.401v15.311h-7.367v-14.878c0-3.178-.506-5.345-1.445-6.428-.939-1.011-2.239-1.517-3.828-1.517-2.094 0-3.683.65-4.767 1.95-.867 1.084-1.3 3.25-1.3 6.573v14.3h-7.367V91.52h7.367v1.517zm33.152-14.373c.867.939 1.3 1.95 1.3 3.178s-.433 2.311-1.3 3.25c-.939.867-1.95 1.3-3.25 1.3s-2.383-.433-3.25-1.3c-.939-.867-1.372-1.95-1.372-3.25 0-1.228.433-2.311 1.372-3.178.939-.867 2.022-1.3 3.322-1.3 1.156-.073 2.239.433 3.178 1.3zm35.463 41.457h-7.368v-1.805c-2.455 1.878-4.983 2.744-7.655 2.744-4.478 0-8.162-1.661-11.123-4.983-2.6-2.889-3.9-6.284-3.9-10.256 0-4.623 1.661-8.379 4.983-11.412 2.889-2.528 6.212-3.828 10.04-3.828 2.672 0 5.272.939 7.655 2.745V91.52h7.368v28.601zm-20.874-19.934c-1.155 1.445-1.733 3.322-1.733 5.634 0 2.672.722 4.839 2.311 6.356 1.517 1.444 3.25 2.239 5.417 2.239 2.528 0 4.478-1.012 5.995-2.962 1.083-1.516 1.661-3.394 1.661-5.706 0-2.6-.722-4.694-2.239-6.283-1.445-1.517-3.25-2.24-5.489-2.24-2.456.073-4.406 1.012-5.923 2.962zM275.47 91.52v29.829c0 1.084-.506 6.212-7.223 6.573V135s13.94-.217 14.517-13.073V91.52h-7.294z" fill="#FF5100"/><defs><linearGradient id="paint0_linear" x1="-.035" y1="70.168" x2="46.137" y2="70.168" gradientUnits="userSpaceOnUse"><stop stop-color="#FF9E18" stop-opacity="0"/><stop offset=".058" stop-color="#FC9018" stop-opacity=".063"/><stop offset=".241" stop-color="#F26A1A" stop-opacity=".259"/><stop offset=".422" stop-color="#EA4C1A" stop-opacity=".453"/><stop offset=".599" stop-color="#E5361B" stop-opacity=".644"/><stop offset=".771" stop-color="#E22A1B" stop-opacity=".828"/><stop offset=".931" stop-color="#E1251B"/></linearGradient></defs></svg>